<svg width="100" height="100" viewBox="0 0 100 100" fill="none" xmlns="http://www.w3.org/2000/svg">
<rect width="100" height="100" rx="50" fill="black"/>
<path d="M31.5094 53.125H25.1937H25V68.75L29.6281 64.4969C34.1625 70.8531 41.5969 75 50 75C62.75 75 73.2687 65.4563 74.8062 53.125H68.4906C67.0031 61.9938 59.2906 68.75 50 68.75C43.4188 68.75 37.625 65.3562 34.2812 60.2219L42.0031 53.125H31.5094Z" fill="white"/>
<path d="M50 25C37.25 25 26.7312 34.5437 25.1937 46.875H31.5094C32.9969 38.0062 40.7094 31.25 50 31.25C56.7781 31.25 62.7187 34.8469 66.0125 40.2375L59.375 46.875H65.625H68.4906H74.8062H75V31.25L70.525 35.725C66.0093 29.2406 58.5 25 50 25Z" fill="white"/>
</svg>
