<svg width="100" height="100" viewBox="0 0 100 100" fill="none" xmlns="http://www.w3.org/2000/svg">
<rect width="100" height="100" rx="50" fill="black"/>
<path d="M76.3594 25H40.2656C39.3596 25 38.625 25.7268 38.625 26.6234V29.9784H68.0469C70.7608 29.9784 72.9688 32.1631 72.9688 34.8485V58.5498H76.3594C77.2654 58.5498 78 57.8229 78 56.9264V26.6234C78 25.7268 77.2654 25 76.3594 25Z" fill="white"/>
<path d="M68.0469 33.2251H31.9531C31.0471 33.2251 30.3125 33.9519 30.3125 34.8485V38.2035H59.7344C62.4483 38.2035 64.6562 40.3882 64.6562 43.0736V66.7749H68.0469C68.9529 66.7749 69.6875 66.048 69.6875 65.1515V34.8485C69.6875 33.9519 68.9529 33.2251 68.0469 33.2251Z" fill="white"/>
<path d="M59.7344 41.4502H23.6406C22.7346 41.4502 22 42.177 22 43.0736V73.3766C22 74.2731 22.7346 75 23.6406 75H59.7344C60.6404 75 61.375 74.2731 61.375 73.3766V43.0736C61.375 42.177 60.6404 41.4502 59.7344 41.4502ZM56.4531 68.5065C56.4531 69.403 55.7186 70.1298 54.8125 70.1298H28.5625C27.6564 70.1298 26.9219 69.403 26.9219 68.5065V47.9437C26.9219 47.0472 27.6564 46.3203 28.5625 46.3203H54.8125C55.7186 46.3203 56.4531 47.0472 56.4531 47.9437V68.5065Z" fill="white"/>
<path d="M30.2031 65.877V66.8831H38.9635L34.3414 61.2703L30.2031 65.877Z" fill="white"/>
<path d="M30.2031 60.9899L33.1696 57.6876C33.841 56.9402 35.0293 56.9654 35.6677 57.7406L40.0105 63.0142L47.0267 54.4939C47.6652 53.7185 48.8534 53.6933 49.5249 54.4408L53.1719 58.5007V49.567H30.2031V60.9899ZM40.0469 52.8138C40.9529 52.8138 41.6875 53.5406 41.6875 54.4371C41.6875 55.3337 40.9529 56.0605 40.0469 56.0605C39.1408 56.0605 38.4062 55.3337 38.4062 54.4371C38.4062 53.5406 39.1408 52.8138 40.0469 52.8138Z" fill="white"/>
<path d="M42.1266 65.5844L43.1961 66.8831H53.1718V63.3877L48.3528 58.0234L42.1266 65.5844Z" fill="white"/>
</svg>
