<svg width="100" height="100" viewBox="0 0 100 100" fill="none" xmlns="http://www.w3.org/2000/svg">
<rect width="100" height="100" rx="50" fill="black"/>
<path d="M77 46.0446C77 43.2271 74.5863 40.9349 71.6196 40.9349H58.6436L60.5327 36.0407C60.5388 36.0248 60.5446 36.0091 60.5502 35.9932C61.4606 33.3997 61.2314 30.6785 59.8874 28.1231C58.8732 26.1967 56.8348 25 54.5676 25H53.9373C52.4106 25 51.1193 26.1327 50.9971 27.5784C50.7838 30.1065 49.642 32.5011 47.7822 34.3219L37.3904 44.3414H36.3478V42.6381C36.3478 41.6975 35.5448 40.9349 34.5543 40.9349H23.7935C22.803 40.9349 22 41.6975 22 42.6381V73.2967C22 74.2373 22.803 75 23.7935 75H34.5544C35.5448 75 36.3479 74.2374 36.3479 73.2967V71.5934H66.2392C69.206 71.5934 71.6197 69.3012 71.6197 66.4837C71.6197 65.5733 71.3679 64.7178 70.9266 63.9768C72.4209 63.0679 73.4132 61.4773 73.4132 59.6706C73.4132 58.7602 73.1614 57.9048 72.7201 57.1637C74.2144 56.2549 75.2067 54.6643 75.2067 52.8576C75.2067 51.9472 74.9549 51.0917 74.5136 50.3507C76.0077 49.442 77 47.8514 77 46.0446ZM32.7609 46.0446V69.8901V71.5934H25.5869V44.3414H32.7609V46.0446ZM71.6196 47.7479H69.826H66.2391C65.2487 47.7479 64.4456 48.5105 64.4456 49.4512C64.4456 50.3919 65.2486 51.1545 66.2391 51.1545H69.826C70.815 51.1545 71.6196 51.9186 71.6196 52.8578C71.6196 53.7969 70.815 54.5611 69.826 54.5611H68.0325H64.4456C63.4552 54.5611 62.6521 55.3236 62.6521 56.2643C62.6521 57.2051 63.4551 57.9676 64.4456 57.9676H68.0325C69.0215 57.9676 69.826 58.7317 69.826 59.6709C69.826 60.6101 69.0215 61.3742 68.0325 61.3742H66.239C66.145 61.3742 66.0535 61.3832 65.9633 61.3963H62.533C61.5425 61.3963 60.7394 62.1589 60.7394 63.0996C60.7394 64.0402 61.5424 64.8029 62.533 64.8029H66.1199C66.2003 64.8029 66.2789 64.7961 66.3565 64.7864C67.2907 64.8443 68.0325 65.5825 68.0325 66.484C68.0325 67.4231 67.2279 68.1873 66.239 68.1873H36.3478V47.7478H38.1413C38.6217 47.7478 39.0819 47.5648 39.4191 47.2398L50.3425 36.7076C50.3455 36.7047 50.3485 36.7017 50.3513 36.6989C52.6565 34.4445 54.1214 31.518 54.5141 28.4063H54.5676C55.4673 28.4063 56.2765 28.8815 56.6788 29.6458C57.5976 31.3924 57.7576 33.1576 57.155 34.8932L54.3921 42.0519C54.1904 42.5743 54.2703 43.1573 54.6058 43.6134C54.9412 44.0696 55.4901 44.3413 56.076 44.3413H71.6196C72.6085 44.3413 73.4131 45.1054 73.4131 46.0446C73.4131 46.9838 72.6085 47.7479 71.6196 47.7479Z" fill="white"/>
</svg>
