<svg width="40" height="40" viewBox="0 0 40 40" fill="none" xmlns="http://www.w3.org/2000/svg">
<path d="M20 0C8.97133 0 0 8.97133 0 20C0 31.0287 8.97133 40 20 40C31.0287 40 40 31.0271 40 20C40 8.97289 31.0287 0 20 0ZM20 36.9016C10.6816 36.9016 3.09836 29.3199 3.09836 20C3.09836 10.6801 10.6816 3.09836 20 3.09836C29.3199 3.09836 36.9016 10.6801 36.9016 20C36.9016 29.3199 29.3184 36.9016 20 36.9016Z" fill="black"/>
<path d="M11.2474 16.5762L18.9934 24.3221C19.5976 24.9232 20.5735 24.9232 21.1777 24.3221L28.9237 16.5762C29.4209 15.9968 29.4209 15.1401 28.9237 14.5607C28.3675 13.9116 27.3884 13.8357 26.7393 14.3919L20.0933 21.0378L13.4318 14.3918C12.8276 13.7907 11.8516 13.7907 11.2474 14.3918C10.6463 14.996 10.6463 15.972 11.2474 16.5762Z" fill="black"/>
</svg>
